<?xml version="1.0" standalone="no"?>
<!DOCTYPE svg PUBLIC "-//W3C//DTD SVG 20010904//EN"
 "http://www.w3.org/TR/2001/REC-SVG-20010904/DTD/svg10.dtd">
<svg version="1.0" xmlns="http://www.w3.org/2000/svg"
 width="127.000000pt" height="52.000000pt" viewBox="0 0 127.000000 52.000000"
 preserveAspectRatio="xMidYMid meet">

<g transform="translate(0.000000,52.000000) scale(0.100000,-0.100000)"
fill="#000000" stroke="none">
<path d="M0 260 l0 -260 635 0 635 0 0 260 0 260 -635 0 -635 0 0 -260z m271
205 c27 -14 32 -14 51 0 28 19 61 19 97 1 55 -29 61 -51 61 -216 l0 -150 -35
0 -35 0 0 150 0 150 -25 6 c-49 12 -55 -5 -55 -162 l0 -144 -35 0 -34 0 -3
153 c-3 150 -3 152 -26 155 -47 7 -52 -9 -52 -164 l0 -144 -35 0 -35 0 0 139
c0 157 9 195 54 222 38 23 67 24 107 4z m329 -54 c0 -87 22 -121 79 -121 62 0
75 17 81 107 l5 78 33 3 32 3 0 -73 c0 -88 -19 -133 -72 -167 -37 -24 -38 -26
-38 -83 l0 -58 -35 0 -35 0 0 60 c0 53 -3 62 -22 69 -57 22 -100 97 -92 161 1
14 3 40 3 58 1 29 4 32 31 32 l30 0 0 -69z m489 63 c49 -10 91 -58 91 -103 0
-20 -7 -47 -16 -59 -14 -20 -14 -24 0 -44 21 -29 20 -87 0 -117 -27 -37 -74
-51 -179 -51 l-95 0 0 190 0 190 84 0 c46 0 98 -3 115 -6z"/>
<path d="M960 360 l0 -40 63 0 c66 0 84 6 87 30 7 48 3 50 -75 50 l-75 0 0
-40z"/>
<path d="M960 210 l0 -40 63 0 c34 0 67 4 73 8 17 11 22 35 12 55 -7 14 -22
17 -78 17 l-70 0 0 -40z"/>
</g>
</svg>
